<svg width="280" height="582" viewBox="0 0 280 582" fill="none" xmlns="http://www.w3.org/2000/svg">
<g clip-path="url(#clip0_33:603)">
<path opacity="0.2" fill-rule="evenodd" clip-rule="evenodd" d="M210.431 12.0287C213.946 10.2894 218.632 12.3066 216.677 16.9047C214.583 21.8285 206.842 21.8893 202.47 21.7917C202.908 21.7689 204.317 17.2536 204.799 16.5714C206.222 14.5586 208.27 13.1 210.431 12.0287ZM169.961 101.744C168.719 102.803 169.86 101.843 169.961 101.744V101.744ZM214.516 34.8893C216.618 36.4767 216.717 39.2812 214.998 41.1804C212.952 43.4414 209.218 43.361 206.43 43.1422C205.169 43.0431 198.437 42.5136 200.033 41.4239C199.911 41.4698 199.654 41.5811 199.38 41.7324C199.232 42.2657 199.076 42.7972 198.915 43.3262C198.954 43.3491 198.988 43.3736 199.03 43.3963C198.984 43.3765 198.952 43.3551 198.912 43.335C197.29 48.6228 194.983 53.6581 191.963 58.3693C193.092 57.9293 194.261 57.5961 195.448 57.4474C198.96 57.0066 206.348 59.7006 202.417 64.3248C198.647 68.7577 192.785 64.0069 188.509 63.3535C184.359 69.076 179.784 74.5605 174.989 79.8619C175.283 79.9527 175.541 80.1419 175.688 80.4367C177.611 79.4718 179.615 78.0919 181.394 77.7176C183.962 77.1784 189.226 76.8496 191.166 79.1198C193.551 81.9112 190.991 84.1809 188.171 84.7179C184.082 85.4968 178.731 83.5252 174.798 82.1932C174.348 82.2721 173.857 82.1422 173.563 81.7867C173.476 81.7586 173.39 81.7309 173.305 81.704C168.45 86.9796 163.409 92.0813 158.399 97.0711C158.452 97.0683 158.505 97.0651 158.561 97.0622C159.867 96.2148 161.269 95.5193 162.788 95.1547C166.302 94.3066 170.435 94.3003 173.285 96.8113C176.124 99.3115 177.127 103.686 174.188 106.497C168.304 112.123 159.646 99.3063 156.68 98.7726C151.588 103.79 146.205 108.479 140.737 113.072C141.358 112.885 141.995 112.748 142.652 112.686C148.012 112.176 160.588 118.663 154.008 125.056C148.273 130.626 141.645 119.914 137.028 116.168C131.875 120.45 126.695 124.702 121.659 129.12C124.405 128.398 127.058 128.291 130 129.168C133.044 130.077 137.956 132.347 136.029 136.411C134.07 140.544 128.17 138.667 125.098 137.357C123.422 136.642 120.063 134.229 117.113 133.213C109.078 140.711 102.118 148.969 96.8463 158.695C93.5554 164.767 91.057 171.254 89.2975 177.922C88.1743 182.177 85.962 189.325 86.4013 194.863C84.2994 183.778 88.1171 170.463 92.2273 160.552C96.0065 151.439 101.66 143.438 108.28 136.235C106.622 131.3 92.6499 124.188 101.007 119.598C105.445 117.171 109.987 121.192 110.955 125.452C111.619 128.38 110.603 132.06 109.524 134.902C111.607 132.706 113.772 130.581 116.002 128.526C119.085 125.687 122.242 122.929 125.429 120.206C120.182 115.335 115.221 101.405 122.26 99.1226C132.655 95.762 127.641 114.77 126.914 118.332C126.708 118.344 126.548 118.283 126.43 118.151C126.488 118.477 126.556 118.826 126.638 119.178C132.737 113.993 138.927 108.911 144.913 103.603C144.374 103.209 143.518 101.705 142.845 100.905C141.326 99.0999 139.872 97.2147 138.811 95.1032C137.133 91.7663 135.517 86.4433 139.968 84.4778C144.81 82.3364 147.107 88.3566 147.139 91.9486C147.16 94.4329 146.475 96.7933 146.117 99.2285C146.005 99.988 146.432 103.411 145.386 101.939C145.435 102.482 145.442 102.875 145.418 103.154C146.492 102.196 147.559 101.228 148.618 100.253C148.569 100.13 148.533 99.9959 148.525 99.8403C148.469 98.7694 149.559 98.3564 150.324 98.6697C151.722 97.3564 153.107 96.0265 154.467 94.6702C157.349 91.7969 160.273 88.8416 163.177 85.8234C162.548 85.289 162.798 84.5485 162.21 83.9812C161.622 83.4152 160.464 83.1025 159.773 82.5768C158.035 81.2538 156.594 79.3258 155.552 77.4281C153.832 74.2926 151.61 67.7143 156.641 66.2169C161.826 64.671 164.454 71.0031 164.785 74.9627C164.85 75.7297 164.265 82.6421 163.819 85.1522C169.192 79.543 174.477 73.7234 179.266 67.8029C177.815 67.7903 173.703 64.8543 172.871 64.053C170.843 62.0985 167.62 57.7792 171.178 55.4908C174.343 53.4611 178.24 56.3966 179.591 59.2508C179.813 59.7207 180.595 64.0957 180.655 66.0588C182.637 63.5481 184.528 61.0227 186.287 58.4893C187.46 56.805 188.557 55.0762 189.583 53.3107C189.336 53.1726 189.104 52.9317 188.885 52.6321C183.61 51.7498 176.888 43.618 183.086 40.7844C186.037 39.437 189.235 42.2136 190.679 44.4875C190.975 44.9526 191.453 47.292 191.843 49.1372C194.795 43.2887 197.051 37.0974 198.77 30.7497C198.31 30.6373 197.922 30.2907 197.871 29.6944C195.31 28.2525 193.288 27.0518 191.501 24.2776C190.392 22.5544 188.393 18.6172 191.657 17.6588C195.906 16.4118 198.57 22.8223 198.916 25.9803C198.956 26.3468 198.954 27.413 198.94 28.3901C199.087 28.3701 199.236 28.3723 199.383 28.3978C200.36 24.4673 201.141 20.4863 201.762 16.4987C199.444 15.7624 199.049 3.72955 200.594 2.0154C204.046 -1.82278 206.477 3.71789 206.292 6.647C206.072 10.1007 204.487 13.2431 202.6 16.0322C202.398 16.3276 202.456 16.3132 202.403 15.9019C202.374 16.1053 202.305 16.2553 202.203 16.3641C202.3 18.1819 202.488 20.0431 202.396 21.6518C202.133 26.2587 201.588 30.8926 200.797 35.4404C200.605 36.5465 200.385 37.6436 200.138 38.7312C202.002 37.1613 204.515 35.7661 205.498 35.3297C208.05 34.1981 211.983 32.9758 214.516 34.8893ZM85.9839 194.425C86.107 195.906 86.4729 197.257 87.1931 198.363C86.6644 197.098 86.2679 195.781 85.9839 194.425Z" fill="#C1DEE2"/>
<g opacity="0.5">
<path opacity="0.5" fill-rule="evenodd" clip-rule="evenodd" d="M178.405 162.873C182.612 156.887 190.418 141.685 196.339 139.546C200.152 138.169 199.04 152.42 199.088 155.137C199.271 165.65 198.245 176.096 196.979 186.521C194.697 205.322 187.236 222.066 177.003 238.067C171.737 246.301 165.56 254.634 157.006 259.772C153.068 262.138 148.33 262.534 144.441 264.572C139.912 266.945 142.379 265.027 140.338 269.737C137.503 276.276 136.597 284.712 135.285 291.689C129.264 323.719 114.685 493.036 117.213 525.616C117.437 528.504 113.402 529.194 113.201 525.669C112.13 506.976 121.394 377.531 126.068 335.199C130.742 292.867 135.472 255.469 140.214 240.823C145.968 223.055 156.359 201.687 165.009 185.117C169.026 177.419 173.406 169.987 178.405 162.873Z" fill="#69A1AC"/>
<path opacity="0.5" fill-rule="evenodd" clip-rule="evenodd" d="M209.628 370.494C220.575 362.474 232.423 377.61 222.518 385.631C217.042 390.065 211.317 388.488 208.095 384.793C206.002 387.338 204.044 389.999 202.163 392.247C196.43 399.096 191.012 406.108 185.834 413.284C175.077 428.192 165.859 443.942 156.22 459.404C146.708 474.664 137.272 490.002 128.651 505.649C121.347 518.905 111.612 534.501 109.112 549.034C112.906 518.212 127.302 488.586 144.446 461.414C161.45 434.465 180.964 405.034 207.293 383.766C204.613 379.834 204.539 374.22 209.628 370.494Z" fill="#C1DEE2"/>
<path opacity="0.5" fill-rule="evenodd" clip-rule="evenodd" d="M1.91515 295.324C8.04066 296.519 18.0497 310.348 23.0989 315.617C29.0996 321.878 34.5437 328.552 39.6754 335.544C50.7229 350.594 60.603 366.596 69.0044 383.283C82.701 410.486 93.6736 438.411 101.637 468.034C106.512 486.167 109.668 504.962 111.538 523.625C111.892 527.145 115.589 554.281 110.261 555.013C105.469 555.671 106.949 534.407 106.718 531.515C104.104 498.883 96.2756 467.132 85.3858 436.375C83.0138 429.675 80.8102 421.468 77.0168 415.439C74.2851 411.096 76.9972 412.61 72.1966 410.967C68.0745 409.555 63.3779 409.9 59.1567 408.171C49.9867 404.418 42.6441 397.133 36.2079 389.805C23.7 375.563 13.7881 360.155 8.62145 341.906C5.75535 331.788 3.12155 321.61 1.65995 311.179C1.28186 308.483 -2.03024 294.554 1.91515 295.324Z" fill="#69A1AC"/>
<path opacity="0.5" fill-rule="evenodd" clip-rule="evenodd" d="M26.0881 65.2446C49.1616 105.178 68.1224 149.044 80.3656 193.474C87.7835 220.393 92.971 248.016 98.1253 275.44C106.106 317.902 113.654 360.361 115.802 403.578C117.962 447.044 122.233 497.178 107.971 539.044C115.095 496.539 108.313 451.296 107.112 408.527C106.538 388.11 104.875 367.893 102.693 347.595C100.576 327.905 97.1176 308.309 93.8969 288.774C92.328 279.26 90.6804 269.76 89.0028 260.266C88.502 257.433 88.2904 249.027 86.4899 247.092C84.6776 245.144 75.4314 244.35 72.5285 242.921C66.6831 240.042 61.1847 235.953 56.3185 231.633C46.9899 223.351 38.8744 212.529 32.4691 201.861C17.6488 177.178 11.7236 147.055 12.0231 118.468C12.0806 112.918 21.0249 53.1509 17.4328 52.3278C17.649 52.0751 17.8536 51.8141 18.0465 51.5426C20.7661 56.0867 23.4348 60.6616 26.0881 65.2446Z" fill="#89C5CC"/>
<path opacity="0.5" fill-rule="evenodd" clip-rule="evenodd" d="M275.127 209.269C275.483 208.756 277.8 205.192 276.634 205.42C279.009 204.956 273.366 209.351 279.285 206.654C276.475 209.303 278.097 212.744 278.134 216.309C278.196 222.098 277.225 227.839 276.133 233.503C274.407 242.456 271.835 251.161 268.102 259.489C259.967 277.637 246.153 295.108 229.753 306.454C221.657 312.055 213.722 313.963 204.489 316.542C198.656 318.171 198.194 321.182 195.098 326.83C188.653 338.594 182.322 350.315 176.638 362.476C169.85 376.997 163.262 391.534 157.046 406.311C136.109 456.086 119.067 507.654 110.117 561.022C109.898 529.572 117.188 497.182 126.384 467.206C133.083 445.366 141.803 424.312 151.104 403.472C153.358 398.423 156.774 391.929 157.731 386.355C158.401 382.449 156.352 378.694 155.414 374.579C151.757 358.558 152.018 340.61 155.23 324.503C158.771 306.742 169.012 298.499 186.336 295.983C192.671 295.063 200.724 295.4 206.533 292.704C212.863 289.769 215.473 280.119 219.073 273.925C228.739 257.286 240.225 241.328 253.414 227.308C257.066 223.425 260.993 219.844 265.159 216.524C267.787 214.429 273.337 211.849 275.127 209.269Z" fill="#89C5CC"/>
<path opacity="0.5" fill-rule="evenodd" clip-rule="evenodd" d="M80.8742 527.056H142.354C145.118 527.056 147.359 529.293 147.359 532.051C147.359 532.295 147.341 532.539 147.306 532.78L142.554 564.935C141.105 574.738 132.676 582 122.748 582H100.481C90.5519 582 82.123 574.738 80.6745 564.935L75.9226 532.78C75.5193 530.051 77.4093 527.512 80.144 527.11C80.3857 527.074 80.6298 527.056 80.8742 527.056Z" fill="#C1DEE2"/>
</g>
</g>
<defs>
<clipPath id="clip0_33:603">
<rect width="279.285" height="582" fill="white"/>
</clipPath>
</defs>
</svg>
